<svg version="1.1" viewBox="0.000000 0.000000 96.000000 96.000000" xmlns="http://www.w3.org/2000/svg" xmlns:xlink="http://www.w3.org/1999/xlink" id="Icons_Refresh_RTL" overflow="hidden"><style>
.MsftOfcThm_Background1_Fill {
 fill:#FFFFFF; 
}
</style>
<path d=" M 10.000000 34.000000 L 10.000000 13.000000 L 16.700001 19.700001 C 23.400000 13.700000 32.299999 10.000000 42.000000 10.000000 C 63.000000 10.000000 80.000000 27.000000 80.000000 48.000000 C 80.000000 69.000000 63.000000 86.000000 42.000000 86.000000 C 31.500000 86.000000 22.000000 81.699997 15.100000 74.900002 L 23.600000 66.400002 C 28.299999 71.099998 34.799999 74.000000 42.000000 74.000000 C 56.299999 74.000000 68.000000 62.299999 68.000000 48.000000 C 68.000000 33.700001 56.299999 22.000000 42.000000 22.000000 C 35.599998 22.000000 29.700001 24.299999 25.200001 28.200001 L 31.000000 34.000000 L 10.000000 34.000000 Z" stroke="none" stroke-width="1.000000" stroke-linecap="butt" fill="#FFFFFF" fill-opacity="1.000000"/></svg>